<svg width="60" height="60" viewBox="0 0 60 60" fill="none" xmlns="http://www.w3.org/2000/svg">
<path fill-rule="evenodd" clip-rule="evenodd" d="M50.3736 3.50384C50.4234 3.75031 50.3464 4.00535 50.1685 4.18306L41.1094 13.2327L46.7684 18.8918L55.8181 9.84212C55.9957 9.66455 56.2504 9.58763 56.4965 9.63722C56.7427 9.6868 56.9478 9.85631 57.0427 10.0888C58.9632 14.7892 58.0093 20.3823 54.1988 24.1928C50.6526 27.7389 45.5627 28.8049 41.0893 27.3957L23.7629 44.7221C23.9183 45.4589 24 46.2223 24 47.004C24 53.0791 19.0751 58.004 13 58.004C6.92487 58.004 2 53.0791 2 47.004C2 40.9289 6.92487 36.004 13 36.004C13.7792 36.004 14.5402 36.0852 15.2748 36.2397L32.6099 18.9046C31.2087 14.4354 32.2764 9.35411 35.8177 5.81249C39.6292 1.99071 45.2223 1.04854 49.9208 2.95762C50.1537 3.05228 50.3237 3.25738 50.3736 3.50384ZM35.8177 5.81249C35.8179 5.81237 35.818 5.81225 35.8181 5.81212L36.3484 6.34245L35.8174 5.81286C35.8175 5.81274 35.8176 5.81262 35.8177 5.81249ZM48.2632 3.96617C44.3531 2.81986 39.9575 3.78552 36.8795 6.87205L36.8788 6.87278C33.6416 10.11 32.7385 14.8049 34.1749 18.8564C34.2716 19.129 34.2029 19.4329 33.9984 19.6374L16.0415 37.5942C15.8549 37.7808 15.584 37.8556 15.328 37.7912C14.5839 37.6038 13.8041 37.504 13 37.504C7.7533 37.504 3.5 41.7573 3.5 47.004C3.5 52.2507 7.7533 56.504 13 56.504C18.2467 56.504 22.5 52.2507 22.5 47.004C22.5 46.1976 22.3997 45.4157 22.2112 44.6696C22.1466 44.4135 22.2213 44.1423 22.4081 43.9556L40.357 26.0067C40.5618 25.8019 40.8662 25.7333 41.139 25.8305C45.194 27.2747 49.8968 26.3735 53.1381 23.1321C56.2178 20.0524 57.1895 15.655 56.0362 11.7454L47.2988 20.4828C47.0059 20.7757 46.531 20.7757 46.2381 20.4828L39.5181 13.7628C39.3774 13.6221 39.2984 13.4312 39.2984 13.2323C39.2985 13.0333 39.3776 12.8425 39.5184 12.7018L48.2632 3.96617ZM17.5002 47.0042C17.5002 44.5189 15.4854 42.5042 13.0002 42.5042C10.5149 42.5042 8.50016 44.5189 8.50016 47.0042C8.50015 49.4895 10.5149 51.5042 13.0002 51.5042C15.4854 51.5042 17.5002 49.4895 17.5002 47.0042ZM13.0002 41.0042C16.3139 41.0042 19.0002 43.6905 19.0002 47.0042C19.0002 50.3179 16.3139 53.0042 13.0002 53.0042C9.68645 53.0042 7.00016 50.3179 7.00016 47.0042C7.00015 43.6905 9.68645 41.0042 13.0002 41.0042Z" fill="black"/>
</svg>
