<?xml version="1.0" encoding="UTF-8"?>
<svg id="Layer_1" xmlns="http://www.w3.org/2000/svg" version="1.1" viewBox="0 0 750.5 197.9">
  <!-- Generator: Adobe Illustrator 29.0.0, SVG Export Plug-In . SVG Version: 2.1.0 Build 186)  -->
  <defs>
    <style>
      .st0 {
        fill: #ea6911;
      }

      .st1 {
        fill: #1b1917;
      }
    </style>
  </defs>
  <g>
    <path class="st1" d="M4.2,75.6c0,37.1,29.4,67.4,66.2,68.7-23.8-1.3-42.6-21-42.6-45.1s20.2-45.1,45.1-45.1V6.8c-38,0-68.8,30.8-68.8,68.8Z"/>
    <path class="st0" d="M73,191.6s0,0,0,0v-47.3s0,0,0,0c24.9,0,45.1-20.2,45.1-45.1,0-24.1-18.8-43.7-42.5-45.1,36.8,1.3,66.2,31.6,66.2,68.7,0,38-30.8,68.8-68.8,68.8Z"/>
  </g>
  <g>
    <path class="st1" d="M222.3,8.8c18.2,0,33.6.9,46.3,2.7,12.7,1.8,22.7,4.5,30,8.2,15.4,7.8,26.7,18,34,30.6,7.3,12.6,10.9,28.2,10.9,46.7,0,31.7-10.2,55.2-30.5,70.4-20.3,15.3-51.5,22.9-93.6,22.9h-43.4l-8.4-7.7,1.6-43.8.5-40.1c0-4.4,0-11.9-.3-22.3-.2-10.5-.3-16.2-.3-17.3,0-4.4-.3-11.3-.8-20.5-.5-9.3-.8-16.4-.8-21.4l9-8.6h45.7ZM220,174.7c10.6,0,20.2-1.9,28.6-5.7,8.4-3.8,15.6-9.2,21.6-16.1,11.5-13.3,17.3-32.2,17.3-56.6s-5.7-41.4-17.1-53.7c-5.8-6.2-12.9-11-21.2-14.2-8.4-3.2-18.1-4.9-29.1-4.9l-1.2,37.6-.4,37.8.4,37.8,1.2,38Z"/>
    <path class="st1" d="M441.3,7.9l-1.4,41.7-.5,44.7c0,5.3,0,14,.3,26,.2,12,.3,18.2.3,18.7,0,5.4.2,12.9.7,22.5.5,9.6.7,16,.7,19.2l-8.3,7.8-11.9-.5-12.1-.3c-1.3,0-3.2,0-5.8.1-2.6,0-4.6.1-5.9.1h-4.8c-1.3,0-3.5.2-6.7.5l1.5-45.8.5-41.9c0-4.6,0-12.4-.3-23.3-.2-10.9-.3-16.8-.3-17.9,0-5.2-.1-10.5-.4-15.9-.8-16-1.2-25.1-1.2-27.2l9-8.5,13.5.9h9.2c0,.1,9,0,9,0l14.7-.9Z"/>
    <path class="st1" d="M613.5,9.1l10.9,19.9-1.6,1.8-14.5-1.9c-2,0-4.8-.1-8.4-.3-3.6-.2-5.9-.3-6.9-.3-17.7,0-31.4,5-41.2,14.9-9.8,9.9-14.7,23.9-14.7,42.1s6.1,38.4,18.3,50.7c12.2,12.3,29,18.5,50.4,18.5h3.9c0-.1,6.3-.6,6.3-.6-4.3-6.7-9.1-13.5-14.4-20.4-4.4-6-9.3-12.1-14.8-18.1,5.7-5.2,11.4-10.7,17.2-16.4,5.3-5.3,11-11.6,17.2-18.6,2.6,2.8,5.6,5.9,8.9,9.4,2.4,2.5,5.4,5.5,8.9,9.1.2.2,2.4,2.2,6.7,6.2,4,3.6,7.8,7.1,11.5,10.4-9,10.5-17.8,22.1-26.6,34.7-8.8,12.6-17,25.8-24.8,39.4l-5.7.4-17.3.6c-30.7,0-54.7-8-71.8-24.1-17.2-16-25.8-38.6-25.8-67.6s9-50.4,26.9-67.2c17.9-16.9,41.8-25.3,71.7-25.3s11.2.3,16,.8c2.2,0,3.9,0,5.2.3,1.3.2,4,.8,8.2,1.8Z"/>
    <path class="st1" d="M746.3,7.9l-1.4,41.7-.5,44.7c0,5.3,0,14,.3,26,.2,12,.3,18.2.3,18.7,0,5.4.2,12.9.7,22.5.5,9.6.7,16,.7,19.2l-8.3,7.8-11.9-.5-12.1-.3c-1.3,0-3.2,0-5.8.1-2.6,0-4.6.1-5.9.1h-4.8c-1.3,0-3.5.2-6.7.5l1.5-45.8.5-41.9c0-4.6,0-12.4-.3-23.3-.2-10.9-.3-16.8-.3-17.9,0-5.2-.1-10.5-.4-15.9-.8-16-1.2-25.1-1.2-27.2l9-8.5,13.5.9h9.2c0,.1,9,0,9,0l14.7-.9Z"/>
  </g>
</svg>