<svg width="115" height="64" viewBox="0 0 115 64" fill="none" xmlns="http://www.w3.org/2000/svg">
<path d="M110.926 9.52026H4.07372C3.14134 9.52026 2.3855 10.2761 2.3855 11.2085V43.3614C2.3855 44.2938 3.14134 45.0496 4.07372 45.0496H110.926C111.858 45.0496 112.614 44.2938 112.614 43.3614V11.2085C112.614 10.2761 111.858 9.52026 110.926 9.52026Z" stroke="#1B1917" stroke-width="4" stroke-miterlimit="133.33" stroke-linecap="round"/>
<path d="M100.405 45.0496H14.5952L19.2336 31.1516C19.4638 30.461 20.1118 30.0005 20.8365 30.0005H94.1547C94.8795 30.0005 95.5275 30.4695 95.7577 31.1516L100.396 45.0496H100.405Z" stroke="#1B1917" stroke-width="4" stroke-miterlimit="133.33" stroke-linecap="round"/>
<path d="M27.3848 51.8622V62" stroke="#EA6911" stroke-width="4" stroke-miterlimit="133.33" stroke-linecap="round"/>
<path d="M57.5 51.8622V62" stroke="#EA6911" stroke-width="4" stroke-miterlimit="133.33" stroke-linecap="round"/>
<path d="M87.615 51.8622V62" stroke="#EA6911" stroke-width="4" stroke-miterlimit="133.33" stroke-linecap="round"/>
<path d="M11.9094 18.5923H20.197" stroke="#EA6911" stroke-width="4" stroke-miterlimit="133.33" stroke-linecap="round"/>
<path d="M8.20044 2H106.799" stroke="#1B1917" stroke-width="4" stroke-miterlimit="133.33" stroke-linecap="round"/>
</svg>
