<svg width="65" height="64" viewBox="0 0 65 64" fill="none" xmlns="http://www.w3.org/2000/svg">
<path d="M26.1116 2H4.35064C3.25858 2 2.37329 2.88529 2.37329 3.97735V25.7384C2.37329 26.8304 3.25858 27.7157 4.35064 27.7157H26.1116C27.2037 27.7157 28.089 26.8304 28.089 25.7384V3.97735C28.089 2.88529 27.2037 2 26.1116 2Z" stroke="#1B1917" stroke-width="4" stroke-miterlimit="133.33" stroke-linecap="round"/>
<path d="M60.6494 2H38.8884C37.7963 2 36.911 2.88529 36.911 3.97735V25.7384C36.911 26.8304 37.7963 27.7157 38.8884 27.7157H60.6494C61.7414 27.7157 62.6267 26.8304 62.6267 25.7384V3.97735C62.6267 2.88529 61.7414 2 60.6494 2Z" stroke="#EA6911" stroke-width="4" stroke-miterlimit="133.33" stroke-linecap="round"/>
<path d="M26.1116 36.2843H4.35064C3.25858 36.2843 2.37329 37.1696 2.37329 38.2616V60.0226C2.37329 61.1147 3.25858 62 4.35064 62H26.1116C27.2037 62 28.089 61.1147 28.089 60.0226V38.2616C28.089 37.1696 27.2037 36.2843 26.1116 36.2843Z" stroke="#1B1917" stroke-width="4" stroke-miterlimit="133.33" stroke-linecap="round"/>
<path d="M60.6494 36.2843H38.8884C37.7963 36.2843 36.911 37.1696 36.911 38.2616V60.0226C36.911 61.1147 37.7963 62 38.8884 62H60.6494C61.7414 62 62.6267 61.1147 62.6267 60.0226V38.2616C62.6267 37.1696 61.7414 36.2843 60.6494 36.2843Z" stroke="#1B1917" stroke-width="4" stroke-miterlimit="133.33" stroke-linecap="round"/>
</svg>
