<svg width="59" height="64" viewBox="0 0 59 64" fill="none" xmlns="http://www.w3.org/2000/svg">
<path d="M55.1456 7.01791H3.85458C3.25195 7.01791 2.76343 7.50644 2.76343 8.10907V59.4001C2.76343 60.0027 3.25195 60.4912 3.85458 60.4912H55.1456C55.7482 60.4912 56.2367 60.0027 56.2367 59.4001V8.10907C56.2367 7.50644 55.7482 7.01791 55.1456 7.01791Z" stroke="#1B1917" stroke-width="4" stroke-miterlimit="133.33" stroke-linecap="round"/>
<path d="M48.4639 32.3099H10.5968C10.1765 32.3099 9.83569 32.6506 9.83569 33.071V52.7859C9.83569 53.2062 10.1765 53.547 10.5968 53.547H48.4639C48.8843 53.547 49.225 53.2062 49.225 52.7859V33.071C49.225 32.6506 48.8843 32.3099 48.4639 32.3099Z" stroke="#EA6911" stroke-width="4" stroke-miterlimit="133.33" stroke-linecap="round"/>
<path d="M14.5236 13.282H10.0984" stroke="#1B1917" stroke-width="4" stroke-miterlimit="133.33" stroke-linecap="round"/>
<path d="M49.225 2H37.2156" stroke="#1B1917" stroke-width="4" stroke-miterlimit="133.33" stroke-linecap="round"/>
<path d="M21.7846 2H9.77515" stroke="#1B1917" stroke-width="4" stroke-miterlimit="133.33" stroke-linecap="round"/>
<path d="M56.2367 19.1015H2.76343" stroke="#1B1917" stroke-width="4" stroke-miterlimit="133.33" stroke-linecap="round"/>
<path d="M6.41406 62H15.1635" stroke="#1B1917" stroke-width="4" stroke-miterlimit="133.33" stroke-linecap="round"/>
<path d="M43.8367 62H52.5929" stroke="#1B1917" stroke-width="4" stroke-miterlimit="133.33" stroke-linecap="round"/>
</svg>
