<svg width="59" height="64" viewBox="0 0 59 64" fill="none" xmlns="http://www.w3.org/2000/svg">
<path d="M56.5 38C56.5 49.3107 56.5 54.973 52.983 58.483C49.466 62 43.8107 62 32.5 62H26.5C15.1893 62 9.52696 62 6.017 58.483C2.5 54.966 2.5 49.3107 2.5 38V26C2.5 14.6893 2.5 9.02696 6.017 5.517C9.534 2 15.1893 2 26.5 2H32.5C43.8107 2 49.473 2 52.983 5.517C56.5 9.034 56.5 14.6893 56.5 26" stroke="#1B1917" stroke-width="4" stroke-miterlimit="133.33" stroke-linecap="round"/>
<path d="M44.5 37.9999C44.5 46.286 37.7825 53.0035 29.4964 53.0035C21.2104 53.0035 14.4929 46.286 14.4929 37.9999C14.4929 29.7139 21.2104 22.9964 29.4964 22.9964C37.7825 22.9964 44.5 29.7139 44.5 37.9999Z" stroke="#EA6911" stroke-width="4" stroke-miterlimit="133.33"/>
<path d="M41.5034 14.0001H29.5034M20.4999 14.0001H17.4963" stroke="#1B1917" stroke-width="4" stroke-miterlimit="133.33" stroke-linecap="round"/>
<path d="M15.2034 39.0903C17.7637 40.3705 20.704 42.5651 25.67 43.4584C32.7532 44.7386 32.0498 38.5135 39.133 39.7866C41.2925 40.1735 42.7485 40.8347 43.7825 41.5381" stroke="#EA6911" stroke-width="4" stroke-miterlimit="133.33" stroke-linecap="round"/>
</svg>
